<!-- style="position: absolute; width: 0; height: 0; overflow: hidden;" -->
<svg aria-hidden="true"  version="1.1" style="position: absolute; width: 0; height: 0; overflow: hidden;" xmlns="http://www.w3.org/2000/svg" xmlns:xlink="http://www.w3.org/1999/xlink">
<defs>

<symbol id="line" width="30" height="2" viewBox="0 0 30 2" fill="none" xmlns="http://www.w3.org/2000/svg">
<line y1="1" x2="30" y2="1" stroke="#F1CDB3" stroke-width="2"/>
</symbol>



<symbol id="icon-arr-left"  viewBox="0 0 32 32">
<path d="M32 13.714v4.571h-25.143v4.571l-6.857-6.857 6.857-6.857v4.571h25.143z"></path>
</symbol>
<symbol id="icon-arr-right" viewBox="0 0 32 32">
<path d="M0 18.286v-4.571h25.143v-4.571l6.857 6.857-6.857 6.857v-4.571h-25.143z"></path>
</symbol>
<symbol id="icon-credit-card" viewBox="0 0 32 32">
<path d="M27.714 28.267h-23.427c-2.364 0-4.287-1.915-4.287-4.267v-16c0-2.353 1.923-4.267 4.287-4.267h23.426c2.363 0 4.287 1.914 4.287 4.267v16c0.001 2.352-1.923 4.267-4.286 4.267zM4.287 4.952c-1.689 0-3.062 1.367-3.062 3.048v16c0 1.68 1.373 3.047 3.062 3.047h23.426c1.689 0 3.062-1.367 3.062-3.047v-16c0-1.681-1.374-3.048-3.062-3.048h-23.426zM22.084 7.317c1.528 0 2.767 1.232 2.767 2.754s-1.238 2.754-2.767 2.754c-1.529 0-2.767-1.233-2.767-2.754s1.239-2.754 2.767-2.754zM25.942 7.317c1.528 0 2.768 1.232 2.768 2.754s-1.239 2.754-2.768 2.754c-1.529 0-2.767-1.233-2.767-2.754s1.239-2.754 2.767-2.754zM3.292 21.156h5.101v1.828h-5.101v-1.828zM10.064 21.156h5.102v1.828h-5.102v-1.828zM16.834 21.156h5.103v1.828h-5.103v-1.828zM23.606 21.156h5.103v1.828h-5.103v-1.828zM3.292 7.318h9.643v1.829h-9.643v-1.829zM3.292 10.946h5.102v1.829h-5.102v-1.829z"></path>
</symbol>
<symbol id="icon-icon1" viewBox="0 0 26 32">
<path fill="#f1cdb3" style="fill: var(--color1, #f1cdb3)" d="M25.012 13.599l-3.069-8.4v-4.437c0-0.421-0.341-0.762-0.762-0.762h-16.762c-0.421 0-0.762 0.341-0.762 0.762v4.437l-3.069 8.4c-0.364 0.995-0.55 2.046-0.55 3.106v12.669c0 1.448 1.178 2.626 2.626 2.626h20.272c1.448 0 2.626-1.178 2.626-2.626v-12.669c0-1.063-0.185-2.108-0.55-3.106zM5.181 1.524h15.238v3.048h-15.238v-3.048zM24.038 26.737h-10.754c-0.421 0-0.762 0.341-0.762 0.762s0.341 0.762 0.762 0.762h10.754v1.113c0 0.608-0.494 1.102-1.102 1.102h-20.272c-0.608 0-1.102-0.494-1.102-1.102v-12.669c-0-0.881 0.154-1.756 0.457-2.583l2.933-8.027h15.696l2.933 8.027c0.303 0.828 0.458 1.702 0.457 2.583l0 10.032z"></path>
<path fill="#f1cdb3" style="fill: var(--color1, #f1cdb3)" d="M15.796 18.029c-0.249-1.561-1.605-2.759-3.235-2.759s-2.987 1.197-3.235 2.759c-1.289 0.53-2.132 1.851-2.024 3.286 0.121 1.599 1.419 2.894 3.018 3.013 0.618 0.046 1.231-0.081 1.774-0.367 0.297-0.156 0.637-0.156 0.934 0 0.471 0.248 0.995 0.377 1.527 0.377 0.082 0 0.164-0.003 0.247-0.009 1.599-0.119 2.897-1.414 3.018-3.013 0.109-1.435-0.734-2.756-2.024-3.286zM16.3 21.2c-0.065 0.854-0.758 1.545-1.612 1.609-0.332 0.025-0.661-0.043-0.95-0.196-0.363-0.192-0.767-0.292-1.178-0.292s-0.815 0.1-1.178 0.292c-0.289 0.153-0.617 0.221-0.95 0.196-0.854-0.063-1.547-0.755-1.612-1.609-0.067-0.876 0.528-1.673 1.383-1.853 0.174-0.037 0.329-0.133 0.44-0.272s0.169-0.312 0.165-0.49l-0.001-0.039c0-0.966 0.786-1.752 1.752-1.752s1.752 0.786 1.752 1.75l-0.001 0.041c-0.004 0.177 0.055 0.351 0.165 0.49s0.266 0.235 0.44 0.272c0.855 0.18 1.45 0.977 1.383 1.853z"></path>
<path fill="#f1cdb3" style="fill: var(--color1, #f1cdb3)" d="M12.56 13.747c1.365 0 2.476-1.111 2.476-2.476s-1.111-2.476-2.476-2.476c-1.365 0-2.476 1.111-2.476 2.476s1.111 2.476 2.476 2.476zM12.56 10.318c0.525 0 0.952 0.427 0.952 0.952s-0.427 0.952-0.952 0.952c-0.525 0-0.952-0.427-0.952-0.952s0.427-0.952 0.952-0.952z"></path>
<path fill="#f1cdb3" style="fill: var(--color1, #f1cdb3)" d="M9.703 14.217c0-1.365-1.111-2.476-2.476-2.476s-2.476 1.111-2.476 2.476c0 1.365 1.111 2.476 2.476 2.476s2.476-1.111 2.476-2.476zM7.227 15.169c-0.525 0-0.952-0.427-0.952-0.952s0.427-0.952 0.952-0.952c0.525 0 0.952 0.427 0.952 0.952s-0.427 0.952-0.952 0.952z"></path>
<path fill="#f1cdb3" style="fill: var(--color1, #f1cdb3)" d="M17.894 11.74c-1.365 0-2.476 1.111-2.476 2.476s1.111 2.476 2.476 2.476c1.365 0 2.476-1.111 2.476-2.476s-1.111-2.476-2.476-2.476zM17.894 15.169c-0.525 0-0.952-0.427-0.952-0.952s0.427-0.952 0.952-0.952c0.525 0 0.952 0.427 0.952 0.952s-0.427 0.952-0.952 0.952z"></path>
<path fill="#f1cdb3" style="fill: var(--color1, #f1cdb3)" d="M9.97 26.737h-0.185c-0.421 0-0.762 0.341-0.762 0.762s0.341 0.762 0.762 0.762h0.185c0.421 0 0.762-0.341 0.762-0.762s-0.341-0.762-0.762-0.762z"></path>
</symbol>
<symbol id="icon-icon2" viewBox="0 0 33 32">
<path fill="#f1cdb3" style="fill: var(--color1, #f1cdb3)" d="M29.869 6.779h-3.746v-0.108c0-1.938-1.576-3.514-3.514-3.514s-3.514 1.576-3.514 3.514v0.108h-4.399c-1.448 0-2.627 1.178-2.627 2.627v2.968h-3.939c-0.94 0-1.775 0.563-2.128 1.434-0.005 0.013-0.010 0.026-0.014 0.039l-2.273 6.884c-0.021 0.012-0.047 0.027-0.080 0.043-0.13 0.065-0.373 0.164-0.791 0.266-0.664 0.161-1.254 0.54-1.676 1.078s-0.65 1.201-0.649 1.884v3.252c0 1.089 0.886 1.975 1.975 1.975l2.786 0c0.294 1.576 1.679 2.772 3.338 2.772s3.044-1.197 3.338-2.772l9.826 0c0.294 1.575 1.679 2.772 3.338 2.772s3.044-1.196 3.338-2.772l1.769 0c1.354 0 2.264-0.91 2.264-2.264v-16.254c0-3.547-1.837-3.93-2.627-3.93zM20.346 6.672c0-1.248 1.016-2.264 2.264-2.264s2.264 1.016 2.264 2.264v0.108h-4.528v-0.108zM7.169 14.26c0.080-0.189 0.214-0.35 0.385-0.464s0.372-0.173 0.577-0.173h3.939v7.084h-7.030l2.129-6.447zM8.62 30.75c-1.184 0-2.147-0.963-2.147-2.147 0-0.015 0.001-0.029 0.001-0.044 0-0.022 0.001-0.045 0.002-0.067 0-0.004 0.001-0.007 0.001-0.010 0.063-1.128 1-2.026 2.143-2.026 1.034 0 1.9 0.735 2.102 1.711l0.001 0.004c0.007 0.033 0.013 0.066 0.018 0.1l0.001 0.006c0.004 0.024 0.007 0.049 0.009 0.074 0.001 0.011 0.003 0.022 0.004 0.034 0.002 0.019 0.003 0.039 0.004 0.058 0.001 0.017 0.003 0.034 0.004 0.051s0.001 0.035 0.001 0.053c0 0.019 0.001 0.038 0.001 0.058 0 1.184-0.963 2.147-2.147 2.147zM25.124 30.75c-1.184 0-2.147-0.963-2.147-2.147 0-0.028 0.001-0.056 0.002-0.083 0-0.009 0-0.018 0.001-0.027 0.001-0.021 0.003-0.041 0.005-0.061 0.001-0.016 0.002-0.032 0.004-0.048 0.001-0.007 0.002-0.013 0.003-0.020 0.007-0.065 0.017-0.13 0.030-0.193 0-0.002 0.001-0.004 0.001-0.006 0.203-0.975 1.068-1.709 2.102-1.709 0.296 0 0.578 0.060 0.835 0.169 0.77 0.326 1.312 1.090 1.312 1.978 0 1.184-0.963 2.147-2.147 2.147zM30.231 27.978l-1.768-0c-0.002-0.011-0.005-0.022-0.007-0.033-0.015-0.073-0.032-0.146-0.051-0.219-0.009-0.032-0.017-0.063-0.027-0.095-0.006-0.020-0.012-0.039-0.018-0.058-0.011-0.033-0.022-0.065-0.033-0.098-0.006-0.017-0.012-0.035-0.018-0.052-0.014-0.037-0.029-0.074-0.044-0.111-0.005-0.012-0.009-0.024-0.014-0.035-0.021-0.049-0.042-0.097-0.065-0.144-0.003-0.006-0.006-0.012-0.009-0.017-0.020-0.041-0.041-0.081-0.062-0.121-0.008-0.015-0.016-0.029-0.024-0.044-0.017-0.031-0.035-0.062-0.053-0.092-0.010-0.016-0.020-0.033-0.030-0.049-0.028-0.045-0.057-0.089-0.087-0.133s-0.060-0.085-0.092-0.127c-0.020-0.026-0.040-0.051-0.060-0.077-0.012-0.015-0.024-0.030-0.037-0.045-0.022-0.026-0.045-0.053-0.068-0.078-0.011-0.013-0.022-0.026-0.034-0.038-0.029-0.031-0.058-0.062-0.088-0.092-0.006-0.006-0.013-0.013-0.019-0.020-0.037-0.037-0.075-0.073-0.113-0.108-0.008-0.008-0.017-0.015-0.025-0.022-0.030-0.027-0.061-0.054-0.092-0.080-0.014-0.011-0.028-0.022-0.041-0.033-0.026-0.021-0.053-0.042-0.080-0.063-0.016-0.012-0.032-0.024-0.048-0.035-0.068-0.050-0.138-0.097-0.209-0.141-0.017-0.011-0.035-0.022-0.053-0.032-0.028-0.017-0.056-0.032-0.084-0.048-0.017-0.010-0.035-0.020-0.052-0.029-0.031-0.016-0.062-0.032-0.093-0.048-0.016-0.008-0.031-0.016-0.046-0.023-0.041-0.019-0.082-0.038-0.124-0.056-0.006-0.003-0.013-0.006-0.019-0.009-0.048-0.020-0.097-0.040-0.146-0.058-0.014-0.005-0.028-0.010-0.043-0.015-0.035-0.012-0.071-0.025-0.107-0.036-0.019-0.006-0.038-0.011-0.057-0.017-0.032-0.009-0.064-0.019-0.096-0.027-0.021-0.006-0.041-0.011-0.062-0.016-0.053-0.013-0.105-0.025-0.158-0.035-0.031-0.006-0.063-0.012-0.095-0.017-0.022-0.004-0.043-0.007-0.065-0.010-0.033-0.005-0.066-0.009-0.099-0.013-0.021-0.002-0.042-0.005-0.063-0.007-0.037-0.003-0.073-0.006-0.11-0.008-0.018-0.001-0.036-0.003-0.054-0.004-0.055-0.003-0.11-0.004-0.165-0.004s-0.111 0.002-0.165 0.004c-0.018 0.001-0.036 0.003-0.054 0.004-0.037 0.002-0.073 0.005-0.11 0.008-0.021 0.002-0.042 0.005-0.063 0.007-0.033 0.004-0.066 0.008-0.099 0.013-0.022 0.003-0.044 0.007-0.065 0.010-0.053 0.009-0.107 0.019-0.16 0.030-0.031 0.007-0.062 0.014-0.093 0.022-0.021 0.005-0.042 0.010-0.063 0.016-0.032 0.008-0.063 0.018-0.095 0.027-0.019 0.006-0.039 0.011-0.058 0.017-0.035 0.011-0.070 0.023-0.105 0.035-0.015 0.005-0.030 0.010-0.045 0.016-0.049 0.018-0.098 0.037-0.146 0.058-0.008 0.003-0.016 0.007-0.024 0.011-0.040 0.017-0.080 0.035-0.119 0.054-0.017 0.008-0.033 0.016-0.049 0.025-0.030 0.015-0.060 0.030-0.090 0.046-0.018 0.010-0.036 0.020-0.054 0.030-0.027 0.015-0.054 0.031-0.081 0.047-0.063 0.038-0.125 0.078-0.186 0.12-0.025 0.017-0.050 0.035-0.075 0.053-0.017 0.012-0.034 0.025-0.051 0.038-0.026 0.019-0.051 0.040-0.076 0.060-0.015 0.012-0.030 0.024-0.045 0.036-0.029 0.024-0.057 0.049-0.085 0.074-0.010 0.009-0.021 0.018-0.031 0.028-0.038 0.035-0.075 0.070-0.111 0.106-0.009 0.009-0.018 0.019-0.027 0.028-0.027 0.028-0.054 0.055-0.080 0.084-0.013 0.014-0.026 0.029-0.038 0.043-0.021 0.024-0.043 0.048-0.063 0.073-0.014 0.016-0.027 0.033-0.040 0.049-0.019 0.024-0.038 0.048-0.057 0.072-0.045 0.059-0.087 0.119-0.128 0.18-0.017 0.026-0.034 0.052-0.050 0.078-0.011 0.018-0.023 0.036-0.033 0.054-0.017 0.028-0.033 0.057-0.049 0.085-0.009 0.017-0.019 0.033-0.028 0.050-0.019 0.036-0.038 0.072-0.056 0.108-0.005 0.010-0.011 0.020-0.015 0.030-0.023 0.047-0.044 0.094-0.064 0.142-0.006 0.015-0.012 0.029-0.018 0.044-0.014 0.034-0.027 0.067-0.040 0.102-0.007 0.019-0.014 0.038-0.020 0.058-0.011 0.030-0.021 0.061-0.031 0.092-0.007 0.021-0.013 0.042-0.019 0.063-0.015 0.051-0.029 0.103-0.042 0.155-0.007 0.030-0.014 0.060-0.021 0.091-0.005 0.022-0.010 0.044-0.014 0.066-0.002 0.011-0.005 0.021-0.007 0.031l-9.825-0c-0.002-0.011-0.005-0.022-0.007-0.032-0.004-0.021-0.009-0.043-0.013-0.064-0.018-0.084-0.040-0.167-0.064-0.249-0.006-0.020-0.012-0.041-0.019-0.061-0.010-0.031-0.021-0.063-0.032-0.094-0.007-0.019-0.013-0.037-0.020-0.056-0.013-0.035-0.027-0.069-0.041-0.104-0.006-0.014-0.011-0.029-0.017-0.043-0.020-0.048-0.042-0.095-0.064-0.142-0.005-0.009-0.010-0.019-0.014-0.028-0.018-0.037-0.037-0.074-0.057-0.111-0.009-0.017-0.018-0.033-0.028-0.049-0.016-0.029-0.033-0.058-0.050-0.086-0.011-0.018-0.022-0.036-0.033-0.053-0.016-0.026-0.033-0.052-0.050-0.078-0.041-0.061-0.084-0.121-0.128-0.18-0.019-0.024-0.038-0.048-0.057-0.072-0.013-0.016-0.026-0.033-0.040-0.049-0.021-0.025-0.042-0.049-0.063-0.073-0.013-0.014-0.026-0.029-0.039-0.044-0.026-0.028-0.052-0.056-0.079-0.083-0.009-0.010-0.018-0.019-0.028-0.029-0.036-0.036-0.073-0.072-0.111-0.106-0.011-0.010-0.021-0.019-0.032-0.028-0.028-0.025-0.056-0.049-0.085-0.073-0.015-0.013-0.031-0.025-0.046-0.037-0.025-0.020-0.050-0.040-0.075-0.059-0.017-0.013-0.034-0.025-0.051-0.038-0.025-0.018-0.050-0.036-0.075-0.053-0.043-0.029-0.087-0.058-0.131-0.086-0.018-0.012-0.037-0.023-0.055-0.034-0.027-0.016-0.054-0.031-0.081-0.047-0.018-0.010-0.036-0.021-0.055-0.030-0.030-0.016-0.059-0.031-0.089-0.046-0.017-0.008-0.033-0.017-0.050-0.025-0.039-0.018-0.078-0.036-0.117-0.053-0.008-0.004-0.017-0.008-0.025-0.011-0.048-0.020-0.097-0.039-0.146-0.058-0.015-0.006-0.030-0.010-0.046-0.016-0.034-0.012-0.069-0.024-0.104-0.035-0.019-0.006-0.039-0.012-0.058-0.017-0.031-0.009-0.063-0.018-0.094-0.027-0.021-0.006-0.042-0.011-0.063-0.016-0.083-0.021-0.168-0.038-0.252-0.052-0.022-0.004-0.044-0.007-0.065-0.010-0.033-0.005-0.066-0.009-0.099-0.013-0.021-0.002-0.042-0.005-0.063-0.007-0.037-0.003-0.073-0.006-0.11-0.008-0.018-0.001-0.036-0.003-0.054-0.004-0.055-0.003-0.11-0.004-0.165-0.004s-0.111 0.002-0.165 0.004c-0.018 0.001-0.036 0.003-0.054 0.004-0.037 0.002-0.073 0.005-0.11 0.008-0.021 0.002-0.042 0.005-0.063 0.007-0.033 0.004-0.066 0.008-0.098 0.013-0.022 0.003-0.044 0.007-0.066 0.010-0.053 0.009-0.107 0.019-0.159 0.030-0.031 0.007-0.062 0.014-0.093 0.021-0.021 0.005-0.042 0.010-0.063 0.016-0.031 0.008-0.063 0.017-0.094 0.027-0.020 0.006-0.039 0.011-0.059 0.018-0.034 0.011-0.068 0.023-0.102 0.035-0.016 0.006-0.032 0.011-0.047 0.016-0.049 0.018-0.097 0.037-0.145 0.057-0.010 0.004-0.019 0.009-0.029 0.013-0.038 0.017-0.076 0.034-0.114 0.052-0.018 0.008-0.035 0.017-0.052 0.026-0.029 0.014-0.058 0.029-0.087 0.045-0.019 0.010-0.038 0.021-0.056 0.031-0.027 0.015-0.053 0.030-0.079 0.046-0.045 0.027-0.089 0.054-0.132 0.083-0.019 0.012-0.037 0.025-0.056 0.038-0.024 0.017-0.049 0.034-0.073 0.052-0.018 0.013-0.036 0.026-0.053 0.039-0.025 0.019-0.049 0.038-0.073 0.057-0.016 0.013-0.033 0.026-0.048 0.039-0.027 0.023-0.053 0.046-0.080 0.069-0.012 0.011-0.025 0.021-0.037 0.032-0.037 0.034-0.074 0.069-0.11 0.105-0.011 0.011-0.022 0.023-0.033 0.034-0.025 0.026-0.050 0.051-0.074 0.078-0.014 0.015-0.028 0.031-0.041 0.047-0.020 0.023-0.041 0.046-0.060 0.070-0.014 0.017-0.028 0.034-0.042 0.052-0.019 0.023-0.037 0.046-0.055 0.069-0.031 0.041-0.062 0.083-0.091 0.126-0.013 0.019-0.026 0.038-0.038 0.056-0.016 0.025-0.032 0.050-0.048 0.075-0.012 0.019-0.024 0.037-0.035 0.056-0.016 0.027-0.032 0.054-0.047 0.082-0.010 0.018-0.020 0.035-0.030 0.053-0.018 0.034-0.035 0.068-0.052 0.102-0.006 0.012-0.013 0.024-0.019 0.037-0.022 0.046-0.043 0.093-0.064 0.14-0.007 0.016-0.013 0.033-0.020 0.049-0.013 0.032-0.026 0.064-0.038 0.097-0.007 0.020-0.014 0.040-0.021 0.060-0.010 0.030-0.021 0.059-0.030 0.089-0.007 0.021-0.013 0.043-0.020 0.065-0.009 0.029-0.017 0.058-0.025 0.088-0.014 0.052-0.027 0.104-0.038 0.156-0.005 0.023-0.010 0.045-0.014 0.068-0.002 0.010-0.005 0.020-0.006 0.031h-2.785c-0.4 0-0.725-0.325-0.725-0.725v-3.252c-0.001-0.403 0.134-0.794 0.383-1.111s0.597-0.541 0.988-0.636c0.356-0.087 0.662-0.186 0.912-0.296h22.7c0.345 0 0.625-0.28 0.625-0.625s-0.28-0.625-0.625-0.625h-13.433v-11.301c0-0.759 0.618-1.377 1.377-1.377h15.172c1.198 0 1.377 1.679 1.377 2.68v16.254c0 0.883-0.636 1.014-1.014 1.014z"></path>
<path fill="#f1cdb3" style="fill: var(--color1, #f1cdb3)" d="M27.433 13.235c0-0.82-0.576-1.508-1.345-1.682 0.004-0.043 0.007-0.087 0.009-0.13 0.014-0.509-0.176-0.992-0.535-1.362-0.365-0.376-0.876-0.591-1.4-0.591-0.634 0-1.198 0.308-1.551 0.783-0.353-0.475-0.918-0.783-1.553-0.783-0.52 0-1.026 0.213-1.39 0.584-0.361 0.368-0.555 0.853-0.545 1.364 0.001 0.046 0.004 0.091 0.008 0.136-0.769 0.173-1.345 0.861-1.345 1.682 0 0.694 0.413 1.293 1.005 1.566-0.418 0.517-0.661 1.17-0.661 1.862 0 1.632 1.328 2.96 2.96 2.96 0.538 0 1.063-0.147 1.519-0.42 0.459 0.275 0.984 0.42 1.519 0.42 1.632 0 2.96-1.328 2.96-2.96 0-0.691-0.244-1.345-0.661-1.862 0.593-0.273 1.005-0.872 1.005-1.566zM24.162 10.72c0.189 0 0.372 0.077 0.504 0.212 0.122 0.125 0.186 0.287 0.182 0.455-0.011 0.383-0.321 0.698-0.693 0.703-0.099-0-0.198-0.021-0.288-0.063-0.011-0.005-0.022-0.011-0.033-0.016-0.057-0.030-0.109-0.068-0.155-0.114-0.131-0.13-0.202-0.304-0.201-0.49 0.002-0.379 0.309-0.687 0.685-0.687zM20.56 10.929c0.065-0.066 0.142-0.119 0.228-0.155s0.177-0.054 0.27-0.054c0.377 0 0.685 0.308 0.685 0.686 0 0.092-0.018 0.183-0.053 0.268s-0.088 0.162-0.153 0.227c-0.045 0.044-0.095 0.081-0.151 0.111-0.020 0.009-0.040 0.019-0.061 0.029-0.081 0.034-0.169 0.050-0.257 0.049-0.376-0.006-0.688-0.319-0.695-0.697-0.003-0.173 0.063-0.338 0.187-0.464zM19.036 13.235c-0-0.261 0.213-0.474 0.474-0.474s0.474 0.213 0.474 0.474c0 0.054-0.009 0.105-0.026 0.153-0.016 0.031-0.031 0.063-0.045 0.095-0.084 0.135-0.233 0.226-0.403 0.226-0.261 0-0.474-0.213-0.474-0.474zM24.129 18.373c-0.408-0-0.802-0.146-1.112-0.412-0.113-0.097-0.258-0.151-0.407-0.151s-0.294 0.053-0.407 0.151c-0.31 0.266-0.704 0.412-1.112 0.412-0.943 0-1.71-0.767-1.71-1.71 0-0.715 0.451-1.36 1.121-1.606 0.11-0.040 0.206-0.111 0.278-0.203s0.116-0.203 0.128-0.32c0.018-0.172 0.061-0.34 0.129-0.499 0.022-0.042 0.043-0.085 0.062-0.13 0.166-0.312 0.425-0.565 0.741-0.724 0.027-0.012 0.054-0.025 0.081-0.038 0.217-0.095 0.452-0.144 0.689-0.144 0.244 0 0.477 0.051 0.688 0.143 0.027 0.013 0.053 0.026 0.081 0.038 0.317 0.158 0.576 0.412 0.742 0.724 0.019 0.044 0.040 0.087 0.062 0.13 0.068 0.159 0.111 0.327 0.129 0.499 0.012 0.117 0.056 0.227 0.128 0.32s0.168 0.163 0.278 0.203c0.671 0.246 1.121 0.892 1.121 1.606 0 0.943-0.767 1.71-1.71 1.71zM25.709 13.709c-0.17 0-0.319-0.091-0.403-0.226-0.015-0.032-0.030-0.064-0.045-0.095-0.017-0.049-0.026-0.101-0.026-0.153 0-0.261 0.213-0.474 0.474-0.474s0.474 0.213 0.474 0.474c-0 0.261-0.213 0.474-0.474 0.474z"></path>
<path fill="#f1cdb3" style="fill: var(--color1, #f1cdb3)" d="M29.877 21.214c-0.008-0.040-0.020-0.079-0.036-0.117s-0.035-0.074-0.058-0.108c-0.023-0.034-0.048-0.066-0.078-0.095s-0.061-0.055-0.095-0.078c-0.068-0.045-0.145-0.077-0.225-0.093s-0.163-0.016-0.244 0c-0.040 0.008-0.079 0.020-0.118 0.036s-0.074 0.035-0.107 0.058c-0.034 0.023-0.066 0.049-0.095 0.078s-0.055 0.061-0.078 0.095c-0.023 0.034-0.042 0.070-0.057 0.108s-0.028 0.077-0.036 0.117c-0.008 0.040-0.012 0.081-0.012 0.122s0.004 0.082 0.012 0.122c0.008 0.039 0.020 0.079 0.036 0.117s0.035 0.074 0.058 0.108c0.022 0.034 0.049 0.066 0.078 0.095s0.061 0.055 0.095 0.078c0.034 0.023 0.070 0.041 0.107 0.057s0.078 0.028 0.118 0.036c0.040 0.008 0.081 0.013 0.122 0.013s0.082-0.004 0.122-0.013c0.040-0.007 0.079-0.020 0.117-0.036s0.074-0.034 0.108-0.057c0.034-0.023 0.066-0.049 0.095-0.078s0.055-0.061 0.078-0.095c0.022-0.034 0.042-0.070 0.058-0.108s0.027-0.078 0.036-0.117c0.008-0.041 0.012-0.082 0.012-0.122s-0.004-0.082-0.012-0.122z"></path>
<path fill="#f1cdb3" style="fill: var(--color1, #f1cdb3)" d="M22.61 0c-0.345 0-0.625 0.28-0.625 0.625v1.046c0 0.345 0.28 0.625 0.625 0.625s0.625-0.28 0.625-0.625v-1.046c0-0.345-0.28-0.625-0.625-0.625z"></path>
<path fill="#f1cdb3" style="fill: var(--color1, #f1cdb3)" d="M19.977 2.43l-0.872-0.685c-0.065-0.051-0.138-0.088-0.218-0.11s-0.162-0.028-0.243-0.019c-0.081 0.010-0.16 0.036-0.232 0.076s-0.134 0.094-0.185 0.159c-0.213 0.271-0.166 0.664 0.106 0.877l0.872 0.685c0.11 0.087 0.246 0.134 0.386 0.133 0.095 0 0.188-0.021 0.274-0.063s0.16-0.102 0.218-0.176c0.213-0.272 0.166-0.664-0.106-0.878z"></path>
<path fill="#f1cdb3" style="fill: var(--color1, #f1cdb3)" d="M26.993 1.851c-0.213-0.272-0.606-0.319-0.878-0.106l-0.872 0.685c-0.272 0.213-0.319 0.606-0.106 0.878 0.058 0.075 0.133 0.135 0.218 0.176s0.179 0.063 0.274 0.063c0.14 0 0.276-0.047 0.386-0.133l0.872-0.685c0.272-0.213 0.319-0.606 0.106-0.878z"></path>
</symbol>
<symbol id="icon-icon3" viewBox="0 0 32 32">
<path fill="#f1cdb3" style="fill: var(--color1, #f1cdb3)" d="M27.314 4.686c-3.022-3.022-7.040-4.686-11.314-4.686s-8.292 1.664-11.314 4.686c-3.022 3.022-4.686 7.040-4.686 11.314s1.664 8.292 4.686 11.314c3.022 3.022 7.040 4.686 11.314 4.686s8.292-1.664 11.314-4.686c3.022-3.022 4.686-7.040 4.686-11.314s-1.664-8.292-4.686-11.314zM5.67 26.33c-2.521-2.521-4.007-5.802-4.244-9.325 0.382 0.013 0.773 0.049 1.167 0.108 2.828 0.42 5.675 1.94 8.014 4.28s3.86 5.186 4.28 8.015c0.058 0.384 0.093 0.772 0.107 1.16-3.399-0.232-6.732-1.644-9.325-4.237zM16.387 30.596c-0.013-0.467-0.055-0.932-0.124-1.394-0.464-3.121-2.123-6.245-4.672-8.794s-5.672-4.209-8.794-4.672c-0.464-0.069-0.932-0.111-1.401-0.124 0.012-0.467 0.046-0.931 0.101-1.389 0.496 0.016 1 0.062 1.504 0.137 3.414 0.507 6.814 2.306 9.573 5.065s4.558 6.159 5.065 9.573c0.074 0.496 0.119 0.995 0.136 1.496-0.461 0.056-0.925 0.090-1.389 0.102zM26.33 26.33c-2.041 2.041-4.54 3.35-7.17 3.929-0.023-0.49-0.071-0.979-0.144-1.465-0.551-3.708-2.489-7.384-5.457-10.353s-6.645-4.906-10.353-5.457c-0.488-0.073-0.978-0.121-1.471-0.144l-0.004 0.003c0.591-2.697 1.939-5.174 3.938-7.173 1.952-1.952 4.324-3.235 6.828-3.849 0.017 0.575 0.068 1.148 0.153 1.717 0.551 3.708 2.489 7.384 5.457 10.353s6.645 4.906 10.353 5.457c0.571 0.085 1.146 0.136 1.723 0.154l0.006-0.010c-0.627 2.567-1.944 4.922-3.861 6.839zM30.457 18.115c-0.587-0.006-1.187-0.054-1.791-0.143-3.415-0.507-6.814-2.306-9.573-5.065s-4.558-6.159-5.065-9.573c-0.089-0.601-0.137-1.199-0.143-1.783 0.462-0.067 0.927-0.112 1.393-0.135-0.001 0.558 0.041 1.132 0.127 1.713 0.464 3.121 2.123 6.245 4.672 8.794 0.272 0.272 0.712 0.272 0.984 0s0.272-0.712 0-0.984c-2.34-2.34-3.86-5.186-4.28-8.014-0.076-0.515-0.114-1.021-0.113-1.511 3.515 0.159 6.984 1.578 9.662 4.256 2.601 2.601 4.1 6.011 4.263 9.662-0.494 0.001-1.001-0.036-1.518-0.113-0.38-0.056-0.734 0.206-0.79 0.586s0.206 0.734 0.586 0.79c0.575 0.085 1.142 0.128 1.694 0.128 0.009 0 0.018-0 0.027-0-0.023 0.466-0.067 0.93-0.134 1.392z"></path>
<path fill="#f1cdb3" style="fill: var(--color1, #f1cdb3)" d="M24.614 13.747c-0.184 0-0.361 0.074-0.492 0.204s-0.204 0.307-0.204 0.492c0 0.183 0.074 0.362 0.204 0.492s0.309 0.204 0.492 0.204 0.362-0.074 0.492-0.204c0.13-0.131 0.203-0.307 0.204-0.492 0-0.183-0.074-0.362-0.204-0.492-0.131-0.13-0.307-0.204-0.492-0.204z"></path>
</symbol>
<symbol id="icon-icon4" viewBox="0 0 32 32">
<path fill="#f1cdb3" style="fill: var(--color1, #f1cdb3)" d="M31.992 20.989l-1.525-10.246c-0.025-2.975-1.831-5.734-4.965-7.577-2.596-1.526-5.97-2.367-9.502-2.367s-6.906 0.841-9.502 2.367c-3.134 1.843-4.94 4.602-4.965 7.577l-1.525 10.246c-0.005 0.035-0.008 0.071-0.008 0.107 0 3.013 2.008 5.803 5.508 7.654 2.866 1.516 6.592 2.351 10.492 2.351s7.625-0.835 10.491-2.351c3.501-1.852 5.508-4.642 5.508-7.654-0-0.036-0.003-0.072-0.008-0.107zM7.236 4.421c2.376-1.397 5.488-2.166 8.764-2.166s6.388 0.769 8.764 2.166c2.7 1.587 4.249 3.914 4.249 6.384s-1.549 4.797-4.249 6.384c-2.376 1.397-5.488 2.166-8.764 2.166s-6.389-0.769-8.764-2.166c-2.7-1.587-4.249-3.914-4.249-6.384s1.549-4.797 4.249-6.384zM25.811 27.465c-2.66 1.407-6.144 2.182-9.811 2.182s-7.151-0.775-9.811-2.182c-2.987-1.58-4.709-3.88-4.733-6.316l1.002-6.73c0.835 1.561 2.211 2.95 4.041 4.025 2.596 1.526 5.97 2.367 9.502 2.367s6.906-0.841 9.502-2.367c1.83-1.076 3.206-2.464 4.041-4.025l1.002 6.73c-0.024 2.436-1.746 4.736-4.733 6.316z"></path>
<path fill="#f1cdb3" style="fill: var(--color1, #f1cdb3)" d="M16 17.9c4.988 0 9.391-1.93 10.954-4.803 0.4-0.734 0.603-1.505 0.603-2.292 0-1.969-1.254-3.791-3.531-5.129-2.156-1.267-5.006-1.965-8.027-1.965s-5.871 0.698-8.027 1.965c-2.277 1.339-3.531 3.16-3.531 5.129 0 0.787 0.203 1.558 0.603 2.291 1.564 2.873 5.966 4.803 10.955 4.803zM16 16.444c-4.184 0-7.985-1.503-9.464-3.697 1.479-2.193 5.281-3.695 9.464-3.695s7.985 1.502 9.464 3.695c-1.478 2.194-5.279 3.697-9.464 3.697zM5.898 10.805c0-1.432 0.999-2.808 2.813-3.875 1.935-1.138 4.524-1.764 7.289-1.764s5.354 0.627 7.289 1.764c1.814 1.066 2.813 2.442 2.813 3.875 0 0.128-0.009 0.255-0.025 0.382-2.007-2.19-5.829-3.59-10.078-3.59s-8.071 1.4-10.078 3.59c-0.016-0.127-0.024-0.254-0.025-0.382z"></path>
<path fill="#f1cdb3" style="fill: var(--color1, #f1cdb3)" d="M16 22.011c-0.098 0-0.196 0.020-0.286 0.059s-0.172 0.095-0.24 0.167c-0.474 0.497-2.020 2.21-2.020 3.413 0 1.404 1.142 2.547 2.547 2.547s2.547-1.142 2.547-2.547c0-1.203-1.546-2.916-2.020-3.413-0.068-0.071-0.15-0.128-0.24-0.167s-0.188-0.059-0.286-0.059zM16 26.74c-0.602 0-1.091-0.49-1.091-1.091 0-0.323 0.508-1.104 1.091-1.812 0.584 0.709 1.091 1.489 1.091 1.812 0 0.602-0.49 1.091-1.091 1.091z"></path>
<path fill="#f1cdb3" style="fill: var(--color1, #f1cdb3)" d="M12.738 12.479h-0.224c-0.402 0-0.728 0.326-0.728 0.728s0.326 0.728 0.728 0.728h0.224c0.402 0 0.728-0.326 0.728-0.728s-0.326-0.728-0.728-0.728z"></path>
<path fill="#f1cdb3" style="fill: var(--color1, #f1cdb3)" d="M21.373 12.479h-5.19c-0.402 0-0.728 0.326-0.728 0.728s0.326 0.728 0.728 0.728h5.19c0.402 0 0.728-0.326 0.728-0.728s-0.326-0.728-0.728-0.728z"></path>
</symbol>
<symbol id="icon-icon5" viewBox="0 0 17 32">
<path fill="#f1cdb3" style="fill: var(--color1, #f1cdb3)" d="M12.87 9.163v-2.903c0-0.384-0.311-0.696-0.696-0.696h-0.522v-4.87c0-0.384-0.311-0.696-0.696-0.696h-4.522c-0.384 0-0.696 0.311-0.696 0.696v4.87h-0.522c-0.384 0-0.696 0.311-0.696 0.696v2.903c-2.443 0.974-4.174 3.364-4.174 6.15v15.991c0 0.384 0.311 0.696 0.696 0.696h15.304c0.384 0 0.696-0.311 0.696-0.696v-15.991c-0-2.786-1.731-5.176-4.174-6.15zM7.13 1.391h3.13v4.174h-3.13v-4.174zM5.913 6.956h5.565v1.739h-5.565v-1.739zM15.652 30.609h-13.913v-15.296c0-2.882 2.344-5.226 5.226-5.226h3.461c2.882 0 5.226 2.344 5.226 5.226v15.296z"></path>
<path fill="#f1cdb3" style="fill: var(--color1, #f1cdb3)" d="M13.217 14.609h-9.043c-0.384 0-0.696 0.311-0.696 0.696v12.87c0 0.384 0.311 0.696 0.696 0.696h9.043c0.384 0 0.696-0.311 0.696-0.696v-4.372c0-0.384-0.311-0.696-0.696-0.696s-0.696 0.311-0.696 0.696v3.676h-7.652v-11.478h7.652v2.202c0 0.384 0.311 0.696 0.696 0.696s0.696-0.311 0.696-0.696v-2.898c0-0.384-0.311-0.696-0.696-0.696z"></path>
<path fill="#f1cdb3" style="fill: var(--color1, #f1cdb3)" d="M13.217 20.301c-0.384 0-0.696 0.311-0.696 0.696v0.070c0 0.384 0.311 0.696 0.696 0.696s0.696-0.311 0.696-0.696v-0.070c0-0.384-0.311-0.696-0.696-0.696z"></path>
<path fill="#f1cdb3" style="fill: var(--color1, #f1cdb3)" d="M7.996 21.947c-1.151 0-2.087 0.936-2.087 2.087s0.936 2.087 2.087 2.087 2.087-0.936 2.087-2.087c0-1.151-0.936-2.087-2.087-2.087zM7.996 24.73c-0.384 0-0.696-0.312-0.696-0.696s0.312-0.696 0.696-0.696 0.696 0.312 0.696 0.696c0 0.384-0.312 0.696-0.696 0.696z"></path>
<path fill="#f1cdb3" style="fill: var(--color1, #f1cdb3)" d="M11.651 19.192c0-1.151-0.936-2.087-2.087-2.087s-2.087 0.936-2.087 2.087c0 1.151 0.936 2.087 2.087 2.087s2.087-0.936 2.087-2.087zM9.564 19.887c-0.384 0-0.696-0.312-0.696-0.696s0.312-0.696 0.696-0.696 0.696 0.312 0.696 0.696c0 0.384-0.312 0.696-0.696 0.696z"></path>
</symbol>
<symbol id="icon-icon6" viewBox="0 0 32 32">
<path fill="#f1cdb3" style="fill: var(--color1, #f1cdb3)" d="M28.966 18.613c-1.747-0.594-4.057-0.922-6.504-0.922-0.153 0-0.305 0.001-0.457 0.004-2.277 0.038-4.409 0.361-6.047 0.918-0.263 0.089-0.522 0.189-0.776 0.299v-9.987c0-4.185-3.405-7.591-7.591-7.591s-7.591 3.405-7.591 7.591v13.703c0 4.186 3.405 7.591 7.591 7.591 1.328 0 2.635-0.348 3.779-1.006 0.722-0.415 1.37-0.948 1.919-1.571 0.399 0.56 1.188 1.152 2.669 1.656 1.747 0.594 4.056 0.922 6.504 0.922s4.757-0.327 6.504-0.922c2.508-0.854 3.034-1.959 3.034-2.737v-5.21c0-0.777-0.526-1.883-3.034-2.737zM14.174 21.349c0-0.023 0.002-0.046 0.006-0.069l0.001-0.006c0.021-0.113 0.089-0.244 0.214-0.386l0.002-0.003c0.019-0.021 0.040-0.043 0.061-0.065 0.014-0.015 0.029-0.029 0.044-0.044l0.018-0.017c0.105-0.097 0.231-0.194 0.377-0.288 0.002-0.002 0.005-0.004 0.007-0.005 0.342-0.222 0.817-0.452 1.456-0.669 1.62-0.551 3.787-0.855 6.101-0.855 2.108 0 4.093 0.253 5.655 0.715l-13.376 2.465c-0.402-0.296-0.567-0.57-0.568-0.77v-0.001zM13.931 19.622c-0.482 0.369-0.75 0.744-0.886 1.092-0.046 0.117-0.079 0.239-0.099 0.363-0.009 0.056-0.015 0.113-0.019 0.17l-0.001 0.016c-0.002 0.029-0.002 0.058-0.002 0.086v4.71c-1.175 1.825-3.155 2.909-5.333 2.909-3.496 0-6.341-2.844-6.341-6.341v-6.227h1.25v3.375c0 0.345 0.28 0.625 0.625 0.625s0.625-0.28 0.625-0.625v-3.375h10.181v3.221zM13.931 15.151h-10.181v-6.227c0-2.118 1.723-3.841 3.841-3.841s3.841 1.723 3.841 3.841c0 0.345 0.28 0.625 0.625 0.625s0.625-0.28 0.625-0.625c0-2.807-2.284-5.091-5.091-5.091s-5.091 2.284-5.091 5.091v6.227h-1.25v-6.227c0-3.496 2.844-6.341 6.341-6.341s6.341 2.844 6.341 6.341v6.227zM30.75 26.559c0 0.373-0.573 1.004-2.187 1.553-1.62 0.551-3.787 0.855-6.101 0.855s-4.481-0.304-6.101-0.855c-1.614-0.549-2.187-1.18-2.187-1.553v-0.32l0-0.001v-2.989c0.438 0.291 1.018 0.576 1.784 0.836 1.747 0.594 4.056 0.922 6.504 0.922s4.757-0.327 6.504-0.922c0.766-0.261 1.346-0.545 1.784-0.836v3.31zM28.563 22.903c-1.62 0.551-3.787 0.855-6.101 0.855-2.139 0-4.151-0.26-5.723-0.735l13.407-2.471c0.428 0.306 0.603 0.591 0.603 0.797 0 0.373-0.573 1.004-2.187 1.553z"></path>
<path fill="#f1cdb3" style="fill: var(--color1, #f1cdb3)" d="M3.567 21.814c-0.029-0.029-0.061-0.055-0.095-0.078s-0.070-0.042-0.108-0.058c-0.038-0.016-0.077-0.028-0.117-0.036-0.080-0.016-0.163-0.016-0.244 0-0.040 0.008-0.079 0.020-0.118 0.036s-0.074 0.035-0.107 0.058c-0.034 0.023-0.066 0.049-0.095 0.078s-0.055 0.061-0.078 0.095c-0.023 0.034-0.042 0.070-0.058 0.108s-0.028 0.077-0.036 0.117c-0.008 0.040-0.013 0.081-0.013 0.122s0.004 0.082 0.013 0.122c0.007 0.040 0.020 0.079 0.036 0.117s0.034 0.074 0.058 0.108c0.022 0.034 0.049 0.066 0.078 0.095 0.088 0.087 0.199 0.146 0.32 0.171 0.040 0.008 0.081 0.012 0.122 0.012 0.082 0 0.163-0.016 0.239-0.047 0.038-0.016 0.074-0.035 0.108-0.058s0.066-0.049 0.095-0.078c0.029-0.029 0.055-0.061 0.078-0.095s0.042-0.071 0.058-0.108 0.028-0.077 0.036-0.117c0.008-0.041 0.012-0.081 0.012-0.122 0-0.164-0.067-0.326-0.183-0.442z"></path>
</symbol>
<symbol id="icon-icon7" viewBox="0 0 32 32">
<path fill="#f1cdb3" style="fill: var(--color1, #f1cdb3)" d="M31.817 8.479l-8.296-8.296c-0.244-0.244-0.64-0.244-0.884 0l-2.209 2.209c-0.117 0.117-0.183 0.276-0.183 0.442s0.066 0.325 0.183 0.442l2.625 2.625-2.485 2.485-3.825-3.825c-0.244-0.244-0.64-0.244-0.884 0l-2.538 2.538c-0.117 0.117-0.183 0.276-0.183 0.442s0.066 0.325 0.183 0.442l0.806 0.806-10.359 10.359c-0.952 0.952-0.952 2.501 0 3.453l0.795 0.795-1.458 1.458c-0.058 0.058-0.104 0.127-0.135 0.203s-0.048 0.157-0.048 0.239c0 0.082 0.016 0.163 0.048 0.239s0.077 0.145 0.135 0.203l1.136 1.136-4.058 4.058c-0.244 0.244-0.244 0.64 0 0.884 0.122 0.122 0.282 0.183 0.442 0.183s0.32-0.061 0.442-0.183l4.059-4.059 1.136 1.136c0.117 0.117 0.276 0.183 0.442 0.183s0.325-0.066 0.442-0.183l1.458-1.458 0.795 0.795c0.461 0.461 1.074 0.715 1.726 0.715s1.265-0.254 1.726-0.715l10.359-10.359 0.806 0.806c0.058 0.058 0.127 0.104 0.203 0.136s0.157 0.048 0.239 0.047c0.16 0 0.32-0.061 0.442-0.183l2.538-2.538c0.117-0.117 0.183-0.276 0.183-0.442s-0.066-0.325-0.183-0.442l-3.825-3.825 2.485-2.485 2.624 2.624c0.058 0.058 0.127 0.104 0.203 0.136s0.157 0.048 0.239 0.047c0.16 0 0.32-0.061 0.442-0.183l2.209-2.209c0.244-0.244 0.244-0.64 0-0.884zM13.192 11.491l2.892 2.892c0.058 0.058 0.127 0.104 0.203 0.136s0.157 0.048 0.239 0.047c0.16 0 0.32-0.061 0.442-0.183 0.244-0.244 0.244-0.64 0-0.884l-2.892-2.892 0.935-0.935 5.381 5.381-2.858 2.858-5.381-5.381 1.040-1.040zM6.704 27.569l-2.273-2.273 1.016-1.016 2.273 2.273-1.016 1.016zM11.968 27.348c-0.464 0.464-1.22 0.465-1.685 0l-5.631-5.631c-0.465-0.465-0.465-1.221 0-1.685l0.89-0.89 1.539 1.539c0.122 0.122 0.282 0.183 0.442 0.183s0.32-0.061 0.442-0.183c0.244-0.244 0.244-0.64 0-0.884l-1.539-1.539 1.029-1.029 2.892 2.892c0.122 0.122 0.282 0.183 0.442 0.183s0.32-0.061 0.442-0.183c0.244-0.244 0.244-0.64 0-0.884l-2.892-2.892 1.029-1.029 1.539 1.539c0.122 0.122 0.282 0.183 0.442 0.183s0.32-0.061 0.442-0.183c0.244-0.244 0.244-0.64 0-0.884l-1.539-1.539 1.017-1.017 5.381 5.381-4.064 4.064c-0.244 0.244-0.244 0.64 0 0.884 0.122 0.122 0.282 0.183 0.442 0.183s0.32-0.061 0.442-0.183l4.064-4.064 1.052 1.052-6.616 6.617zM19.469 19.847l-1.052-1.052 2.858-2.858 1.052 1.052-2.858 2.858zM26.113 15.699l-1.654 1.654-9.812-9.812 1.654-1.654 9.812 9.812zM22.73 10.549l-1.279-1.279 2.485-2.485 1.279 1.279-2.485 2.485zM29.166 10.247l-7.412-7.412 1.325-1.325 7.412 7.412-1.325 1.325z"></path>
<path fill="#f1cdb3" style="fill: var(--color1, #f1cdb3)" d="M11.902 24.918c-0.007-0.040-0.020-0.079-0.036-0.117s-0.035-0.074-0.057-0.108c-0.023-0.034-0.049-0.066-0.078-0.095s-0.061-0.055-0.095-0.078c-0.034-0.023-0.070-0.042-0.108-0.058s-0.077-0.028-0.117-0.036c-0.080-0.016-0.163-0.016-0.244 0-0.040 0.008-0.079 0.020-0.117 0.036s-0.074 0.035-0.108 0.058c-0.034 0.023-0.066 0.049-0.095 0.078s-0.055 0.061-0.078 0.095c-0.023 0.034-0.042 0.070-0.058 0.108s-0.028 0.077-0.036 0.117c-0.008 0.040-0.012 0.081-0.012 0.122s0.004 0.082 0.012 0.122c0.008 0.039 0.020 0.079 0.036 0.117s0.035 0.074 0.058 0.107c0.022 0.034 0.049 0.066 0.078 0.095 0.058 0.058 0.127 0.104 0.203 0.136s0.157 0.048 0.239 0.047c0.082 0 0.163-0.016 0.239-0.047s0.145-0.077 0.203-0.136c0.029-0.029 0.055-0.061 0.078-0.095s0.042-0.070 0.057-0.107c0.016-0.038 0.028-0.078 0.036-0.117 0.008-0.041 0.013-0.082 0.013-0.122s-0.004-0.082-0.013-0.122z"></path>
</symbol>
<symbol id="icon-icon8" viewBox="0 0 32 32">
<path fill="#f1cdb3" style="fill: var(--color1, #f1cdb3)" d="M30.558 5.201c-0.832-0.669-2.004-1.264-3.485-1.768-2.967-1.010-6.9-1.566-11.073-1.566s-8.106 0.556-11.073 1.566c-1.481 0.504-2.654 1.099-3.486 1.768-0.956 0.77-1.441 1.619-1.441 2.524v6.995c0 0.905 0.485 1.754 1.441 2.524 0.832 0.669 2.004 1.264 3.486 1.768 2.818 0.959 6.508 1.509 10.448 1.561v2.508h-2.155c-0.239-1.262-1.349-2.219-2.679-2.219-1.504 0-2.727 1.223-2.727 2.727 0 0.654 0.232 1.273 0.642 1.758-0.415 0.492-0.643 1.115-0.642 1.758 0 1.504 1.223 2.727 2.727 2.727 1.33 0 2.441-0.957 2.679-2.219h5.561c0.239 1.262 1.349 2.219 2.679 2.219 1.504 0 2.727-1.223 2.727-2.727 0-0.654-0.232-1.273-0.642-1.758 0.415-0.492 0.643-1.115 0.642-1.758 0-1.504-1.223-2.727-2.727-2.727-1.33 0-2.441 0.957-2.679 2.219h-2.155v-2.508c3.94-0.053 7.63-0.602 10.448-1.561 1.481-0.504 2.654-1.099 3.486-1.768 0.956-0.77 1.441-1.619 1.441-2.524v-6.995c-0-0.905-0.485-1.754-1.442-2.524zM19.361 24.33c0.085 0 0.169-0.017 0.247-0.051s0.148-0.083 0.207-0.145c0.058-0.062 0.104-0.135 0.133-0.214s0.042-0.165 0.037-0.25c-0.002-0.027-0.002-0.055-0.002-0.082 0-0.814 0.663-1.477 1.477-1.477s1.477 0.663 1.477 1.477c0 0.499-0.25 0.961-0.668 1.236-0.087 0.057-0.158 0.134-0.207 0.226s-0.075 0.193-0.075 0.297c0 0.104 0.026 0.206 0.075 0.297s0.12 0.169 0.207 0.226c0.419 0.275 0.668 0.737 0.668 1.236 0 0.814-0.663 1.477-1.477 1.477s-1.477-0.663-1.477-1.477c0-0.028 0.001-0.055 0.002-0.082 0.005-0.085-0.008-0.17-0.037-0.25s-0.074-0.153-0.133-0.215c-0.058-0.062-0.129-0.111-0.207-0.144s-0.162-0.051-0.247-0.051h-6.723c-0.085 0-0.169 0.017-0.247 0.051s-0.148 0.083-0.207 0.144c-0.058 0.062-0.104 0.135-0.133 0.215s-0.042 0.165-0.037 0.25c0.001 0.027 0.002 0.055 0.002 0.082 0 0.814-0.663 1.477-1.477 1.477s-1.477-0.663-1.477-1.477c0-0.499 0.25-0.961 0.668-1.236 0.087-0.057 0.158-0.134 0.207-0.226s0.075-0.193 0.075-0.297c0-0.104-0.026-0.206-0.075-0.297s-0.12-0.169-0.207-0.226c-0.418-0.275-0.668-0.737-0.668-1.236 0-0.814 0.663-1.477 1.477-1.477s1.477 0.663 1.477 1.477c0 0.028-0.001 0.055-0.002 0.082-0.005 0.085 0.008 0.17 0.037 0.25s0.074 0.153 0.133 0.215c0.058 0.062 0.129 0.111 0.207 0.144s0.162 0.051 0.247 0.051h6.722zM16 19.327c-0.83 0-1.505-0.675-1.505-1.505s0.675-1.505 1.505-1.505c0.83 0 1.505 0.675 1.505 1.505s-0.675 1.505-1.505 1.505zM30.75 14.719c0 1.978-4.987 4.16-12.405 4.547 0.269-0.434 0.411-0.934 0.41-1.445 0-0.197-0.021-0.389-0.061-0.574 2.426-0.159 4.679-0.521 6.558-1.057 0.332-0.095 0.524-0.441 0.43-0.773s-0.44-0.524-0.772-0.43c-1.929 0.55-4.281 0.909-6.819 1.043-0.506-0.59-1.255-0.964-2.091-0.964-0.84 0-1.594 0.379-2.099 0.974-1.72-0.082-3.354-0.266-4.86-0.549-0.339-0.064-0.666 0.159-0.73 0.499s0.159 0.666 0.499 0.73c1.404 0.264 2.912 0.445 4.493 0.54-0.038 0.185-0.058 0.373-0.058 0.562-0 0.511 0.142 1.011 0.411 1.445-7.418-0.387-12.405-2.57-12.405-4.547v-4.632l0.008 0.007c0.060 0.052 0.121 0.104 0.183 0.153 0.084 0.067 0.169 0.132 0.255 0.194l0.001 0.001c0.047 0.034 0.094 0.068 0.143 0.101l0.022 0.015c0.046 0.031 0.092 0.063 0.139 0.093 0.010 0.006 0.019 0.012 0.029 0.019 0.048 0.031 0.096 0.062 0.145 0.092l0.021 0.013c0.739 0.457 1.653 0.872 2.731 1.239 2.967 1.010 6.899 1.566 11.073 1.566s8.106-0.556 11.073-1.566c1.078-0.367 1.992-0.782 2.731-1.239l0.021-0.013c0.049-0.031 0.097-0.062 0.145-0.092l0.029-0.019c0.047-0.031 0.093-0.062 0.139-0.093l0.022-0.015c0.048-0.034 0.096-0.067 0.143-0.101l0.001-0.001c0.087-0.063 0.172-0.128 0.255-0.194 0.062-0.050 0.123-0.101 0.183-0.153l0.008-0.007v4.632zM4.016 10.322c0.544-0.249 1.289-0.535 2.279-0.812 2.69-0.754 6.136-1.169 9.705-1.169s7.016 0.415 9.705 1.169c0.99 0.277 1.735 0.563 2.279 0.812-2.587 1.153-6.82 2.010-11.984 2.010s-9.398-0.857-11.984-2.010zM30.746 7.816c-0.003 0.036-0.007 0.073-0.013 0.109l-0.001 0.006c-0.007 0.038-0.015 0.076-0.025 0.114-0.007 0.027-0.015 0.054-0.024 0.081l-0.005 0.016c-0.014 0.040-0.029 0.079-0.046 0.117-0.007 0.015-0.014 0.030-0.021 0.046-0.014 0.030-0.029 0.060-0.046 0.090l-0.004 0.008c-0.26 0.469-0.751 0.88-1.238 1.201-0.647-0.373-1.686-0.849-3.279-1.296-2.796-0.784-6.363-1.216-10.043-1.216s-7.246 0.432-10.043 1.216c-1.593 0.447-2.632 0.923-3.279 1.296-0.487-0.321-0.978-0.731-1.238-1.201l-0.004-0.008c-0.016-0.030-0.032-0.060-0.046-0.090-0.007-0.015-0.014-0.030-0.021-0.045-0.006-0.013-0.011-0.026-0.016-0.038-0.011-0.026-0.021-0.053-0.030-0.079-0.002-0.005-0.003-0.011-0.005-0.016-0.011-0.034-0.021-0.069-0.030-0.104-0.008-0.030-0.014-0.061-0.020-0.091l-0.001-0.006c-0.006-0.036-0.010-0.072-0.013-0.109-0.003-0.031-0.004-0.061-0.004-0.092 0-2.179 6.058-4.608 14.75-4.608s14.75 2.428 14.75 4.608c0 0.030-0.002 0.061-0.004 0.092z"></path>
<path fill="#f1cdb3" style="fill: var(--color1, #f1cdb3)" d="M25.694 5.943c-0.024-0.121-0.084-0.232-0.171-0.32-0.029-0.029-0.061-0.055-0.095-0.077-0.068-0.045-0.145-0.077-0.225-0.093s-0.164-0.016-0.244 0c-0.040 0.008-0.079 0.020-0.117 0.036s-0.074 0.035-0.108 0.058c-0.034 0.022-0.066 0.049-0.096 0.077s-0.054 0.061-0.077 0.095c-0.045 0.068-0.077 0.145-0.093 0.225-0.008 0.041-0.012 0.081-0.012 0.122s0.004 0.082 0.012 0.122c0.016 0.080 0.048 0.157 0.093 0.225 0.023 0.034 0.049 0.066 0.077 0.095s0.061 0.054 0.096 0.077c0.034 0.022 0.070 0.042 0.108 0.058s0.077 0.027 0.117 0.036c0.041 0.008 0.082 0.013 0.122 0.013s0.082-0.004 0.122-0.013c0.040-0.008 0.079-0.020 0.117-0.036s0.074-0.035 0.108-0.058c0.034-0.023 0.066-0.049 0.095-0.077s0.055-0.061 0.078-0.095c0.045-0.068 0.077-0.145 0.093-0.225 0.008-0.041 0.013-0.081 0.013-0.122s-0.004-0.081-0.013-0.122z"></path>
<path fill="#f1cdb3" style="fill: var(--color1, #f1cdb3)" d="M23.191 4.992c-2.153-0.405-4.604-0.619-7.088-0.619-3.437 0-6.76 0.408-9.356 1.149-0.332 0.095-0.524 0.441-0.429 0.772 0.078 0.275 0.329 0.454 0.601 0.454 0.057 0 0.114-0.008 0.172-0.024 2.488-0.71 5.689-1.101 9.013-1.101 2.407 0 4.778 0.207 6.857 0.598 0.339 0.064 0.666-0.159 0.73-0.499s-0.159-0.666-0.499-0.73z"></path>
<path fill="#f1cdb3" style="fill: var(--color1, #f1cdb3)" d="M7.531 15.525c-0.008-0.040-0.020-0.079-0.036-0.117s-0.035-0.074-0.058-0.108c-0.023-0.034-0.049-0.066-0.078-0.095s-0.061-0.055-0.095-0.078c-0.034-0.023-0.070-0.041-0.108-0.057s-0.077-0.028-0.117-0.036c-0.081-0.016-0.164-0.016-0.244 0-0.040 0.007-0.079 0.020-0.117 0.036s-0.074 0.034-0.108 0.057c-0.034 0.023-0.066 0.049-0.095 0.078s-0.055 0.061-0.077 0.095c-0.022 0.034-0.042 0.070-0.058 0.108s-0.028 0.078-0.036 0.117c-0.008 0.040-0.013 0.081-0.013 0.122 0 0.082 0.017 0.163 0.048 0.239 0.016 0.038 0.035 0.074 0.058 0.108s0.049 0.066 0.077 0.095c0.029 0.029 0.061 0.055 0.095 0.078s0.070 0.042 0.108 0.058c0.038 0.016 0.077 0.028 0.117 0.036s0.081 0.013 0.122 0.013c0.041 0 0.082-0.004 0.122-0.013s0.079-0.020 0.117-0.036c0.038-0.015 0.074-0.035 0.108-0.058s0.066-0.048 0.095-0.078c0.058-0.058 0.104-0.127 0.136-0.203s0.048-0.157 0.047-0.239c0-0.041-0.004-0.082-0.012-0.122z"></path>
</symbol>
<symbol id="icon-icon9" viewBox="0 0 30 32">
<path fill="#f1cdb3" style="fill: var(--color1, #f1cdb3)" d="M29.841 10.649l-14.385-10.528c-0.107-0.078-0.236-0.121-0.369-0.121s-0.262 0.042-0.369 0.121l-14.385 10.528c-0.279 0.204-0.339 0.595-0.135 0.873l1.88 2.569c0.048 0.066 0.11 0.122 0.18 0.165s0.148 0.071 0.229 0.084c0.081 0.013 0.164 0.009 0.244-0.010s0.155-0.054 0.221-0.103l0.567-0.415v17.564c0 0.345 0.28 0.625 0.625 0.625h21.92c0.345 0 0.625-0.28 0.625-0.625v-17.54l0.534 0.391c0.066 0.049 0.141 0.083 0.221 0.103s0.163 0.023 0.244 0.010c0.081-0.013 0.159-0.041 0.229-0.084s0.131-0.099 0.18-0.165l1.88-2.569c0.204-0.279 0.143-0.67-0.135-0.873zM25.439 28.312h-14.787c-0.345 0-0.625 0.28-0.625 0.625s0.28 0.625 0.625 0.625h14.787v1.188h-20.67v-17.361h14.636c0.345 0 0.625-0.28 0.625-0.625s-0.28-0.625-0.625-0.625h-13.602l9.284-6.795 10.351 7.576v15.392zM27.457 12.849l-12.001-8.783c-0.107-0.078-0.236-0.121-0.369-0.121s-0.262 0.042-0.369 0.121l-12.001 8.783-1.142-1.56 13.512-9.889 13.512 9.889-1.142 1.56z"></path>
<path fill="#f1cdb3" style="fill: var(--color1, #f1cdb3)" d="M22.27 12.642c-0.008-0.040-0.021-0.079-0.036-0.118s-0.035-0.074-0.058-0.108c-0.023-0.034-0.048-0.066-0.078-0.095-0.117-0.117-0.276-0.183-0.442-0.183-0.164 0-0.326 0.067-0.442 0.183-0.029 0.029-0.055 0.061-0.078 0.095s-0.042 0.070-0.058 0.108c-0.016 0.038-0.028 0.078-0.036 0.118s-0.013 0.081-0.013 0.122c0 0.041 0.004 0.082 0.013 0.122s0.020 0.079 0.036 0.117c0.016 0.038 0.035 0.074 0.058 0.108s0.049 0.066 0.078 0.095c0.029 0.029 0.061 0.055 0.095 0.078s0.070 0.042 0.108 0.058c0.038 0.016 0.077 0.028 0.117 0.036s0.081 0.012 0.122 0.012c0.041 0 0.082-0.004 0.122-0.012s0.079-0.020 0.117-0.036c0.038-0.016 0.074-0.035 0.108-0.058s0.066-0.049 0.095-0.078c0.029-0.029 0.055-0.061 0.078-0.095s0.042-0.070 0.058-0.108c0.016-0.038 0.028-0.078 0.036-0.117s0.012-0.081 0.012-0.122c0-0.041-0.004-0.082-0.012-0.122z"></path>
<path fill="#f1cdb3" style="fill: var(--color1, #f1cdb3)" d="M9.013 28.815c-0.008-0.040-0.020-0.079-0.036-0.117s-0.035-0.074-0.058-0.108c-0.023-0.034-0.049-0.066-0.077-0.095s-0.061-0.054-0.095-0.078c-0.068-0.045-0.145-0.077-0.225-0.093s-0.164-0.016-0.244 0c-0.039 0.008-0.079 0.020-0.117 0.036s-0.074 0.035-0.107 0.058c-0.034 0.023-0.066 0.049-0.095 0.078s-0.055 0.061-0.078 0.095c-0.045 0.068-0.077 0.145-0.093 0.225-0.008 0.041-0.012 0.081-0.012 0.122-0 0.082 0.016 0.164 0.047 0.239 0.016 0.038 0.035 0.074 0.058 0.108s0.049 0.066 0.078 0.095c0.029 0.029 0.061 0.055 0.095 0.078s0.070 0.042 0.107 0.058c0.038 0.016 0.078 0.027 0.117 0.036 0.041 0.008 0.082 0.013 0.123 0.013 0.123-0.001 0.244-0.037 0.347-0.106 0.034-0.022 0.066-0.048 0.095-0.078s0.055-0.061 0.077-0.095c0.068-0.103 0.105-0.224 0.106-0.347 0-0.041-0.004-0.081-0.012-0.122z"></path>
<path fill="#f1cdb3" style="fill: var(--color1, #f1cdb3)" d="M22.851 16.306c0-0.53-0.208-1.027-0.585-1.401-0.374-0.369-0.885-0.576-1.406-0.572-0.164 0.002-0.328 0.024-0.487 0.066-1.157 0.296-2.288 0.688-3.381 1.172-0.624-0.148-1.263-0.222-1.904-0.222-0.361 0-0.725 0.024-1.083 0.070-0.276 0.036-0.55 0.087-0.821 0.151-1.092-0.483-2.223-0.875-3.38-1.172-0.006-0.002-0.011-0.003-0.017-0.004-0.615-0.157-1.25-0.016-1.74 0.387s-0.753 0.997-0.719 1.631c0.034 0.65 0.098 1.299 0.192 1.943 0.084 0.578 0.191 1.152 0.321 1.721-0.194 0.495-0.328 1.011-0.402 1.538-0.030 0.22-0.046 0.441-0.046 0.663 0 2.798 2.44 5.074 5.439 5.074h4.514c1.644 0 3.182-0.684 4.219-1.876 0.951-1.092 1.368-2.464 1.173-3.862-0.042-0.3-0.104-0.596-0.185-0.888-0.061-0.22-0.134-0.436-0.217-0.649 0.275-1.204 0.447-2.429 0.512-3.663 0.002-0.037 0.003-0.073 0.003-0.109zM21.599 16.345l-0 0.002c-0.065 1.226-0.241 2.443-0.526 3.637-0.031 0.13-0.020 0.266 0.033 0.389 0.095 0.224 0.176 0.454 0.242 0.689 0.066 0.238 0.116 0.48 0.151 0.725 0.144 1.035-0.168 2.054-0.878 2.869-0.8 0.919-1.994 1.446-3.277 1.446h-4.514c-2.31 0-4.189-1.715-4.189-3.824 0-0.162 0.012-0.327 0.034-0.492 0.068-0.486 0.2-0.961 0.392-1.413 0.052-0.123 0.064-0.26 0.033-0.39-0.142-0.597-0.258-1.2-0.346-1.807s-0.148-1.218-0.18-1.83c-0.012-0.233 0.084-0.451 0.264-0.598 0.132-0.108 0.292-0.165 0.457-0.165 0.056 0 0.113 0.007 0.169 0.020l0.012 0.003c1.162 0.297 2.296 0.696 3.388 1.192 0.132 0.060 0.281 0.073 0.421 0.035 0.289-0.077 0.584-0.135 0.88-0.175 0.304-0.040 0.613-0.060 0.92-0.060 0.612 0 1.218 0.079 1.801 0.234 0.14 0.037 0.288 0.025 0.42-0.035 1.096-0.498 2.234-0.898 3.4-1.196 0.053-0.013 0.108-0.020 0.163-0.020h0.008c0.187 0 0.371 0.077 0.507 0.211 0.068 0.067 0.122 0.146 0.159 0.234s0.056 0.182 0.055 0.277c0 0.013-0 0.026-0.001 0.039z"></path>
<path fill="#f1cdb3" style="fill: var(--color1, #f1cdb3)" d="M16.259 23.235c-0.302 0-0.547-0.245-0.547-0.547 0-0.345-0.28-0.625-0.625-0.625s-0.625 0.28-0.625 0.625v0.023c0 0.302-0.245 0.547-0.547 0.547-0.345 0-0.625 0.28-0.625 0.625s0.28 0.625 0.625 0.625c0.454 0 0.869-0.169 1.185-0.448 0.324 0.275 0.735 0.425 1.159 0.425 0.345 0 0.625-0.28 0.625-0.625s-0.28-0.625-0.625-0.625z"></path>
<path fill="#f1cdb3" style="fill: var(--color1, #f1cdb3)" d="M12.902 20.355l-0.928-0.425c-0.082-0.038-0.17-0.057-0.26-0.057s-0.179 0.019-0.26 0.057l-0.928 0.425c-0.314 0.144-0.452 0.515-0.308 0.828 0.034 0.075 0.083 0.142 0.143 0.198s0.131 0.099 0.208 0.128 0.159 0.042 0.241 0.039c0.082-0.003 0.163-0.022 0.237-0.056l0.668-0.306 0.668 0.306c0.314 0.144 0.685 0.006 0.829-0.308s0.006-0.685-0.308-0.828z"></path>
<path fill="#f1cdb3" style="fill: var(--color1, #f1cdb3)" d="M19.649 20.355l-0.928-0.425c-0.082-0.038-0.17-0.057-0.26-0.057s-0.179 0.019-0.26 0.057l-0.928 0.425c-0.314 0.144-0.452 0.515-0.308 0.828s0.515 0.452 0.828 0.308l0.668-0.306 0.668 0.306c0.081 0.038 0.17 0.057 0.26 0.057 0.237 0 0.463-0.135 0.569-0.365 0.144-0.314 0.006-0.685-0.308-0.828z"></path>
</symbol>
<symbol id="icon-mail" viewBox="0 0 32 32">
<path fill="#f1cdb3" style="fill: var(--color1, #f1cdb3)" d="M31.452 5.6h-30.904c-0.145 0-0.285 0.059-0.387 0.163s-0.161 0.246-0.161 0.393v19.688c0 0.148 0.058 0.289 0.161 0.393s0.242 0.163 0.387 0.163h30.904c0.145 0 0.285-0.059 0.388-0.163s0.16-0.246 0.16-0.393v-19.688c0-0.147-0.058-0.289-0.16-0.393s-0.242-0.163-0.388-0.163zM26.062 17.626c0.086 0.394 0.174 0.802 0.059 1.004-0.124 0.217-0.524 0.343-0.911 0.465-0.305 0.096-0.621 0.196-0.902 0.361-0.272 0.16-0.507 0.383-0.734 0.599-0.313 0.298-0.608 0.579-0.875 0.579s-0.563-0.281-0.875-0.579c-0.227-0.216-0.462-0.44-0.734-0.599-0.281-0.165-0.597-0.265-0.902-0.361-0.387-0.122-0.787-0.248-0.91-0.465-0.115-0.202-0.027-0.61 0.059-1.004 0.070-0.324 0.143-0.658 0.143-1.001s-0.073-0.677-0.143-1.001c-0.086-0.394-0.174-0.802-0.059-1.004 0.124-0.217 0.524-0.343 0.91-0.465 0.305-0.096 0.621-0.196 0.902-0.361 0.272-0.16 0.507-0.383 0.734-0.599 0.313-0.298 0.608-0.579 0.875-0.579s0.563 0.281 0.875 0.579c0.227 0.216 0.462 0.44 0.734 0.599 0.281 0.165 0.597 0.265 0.902 0.361 0.387 0.122 0.787 0.248 0.91 0.465 0.115 0.202 0.027 0.61-0.059 1.004-0.070 0.324-0.143 0.658-0.143 1.001s0.073 0.677 0.143 1.001zM24.478 12.529c-0.050-0.047-0.102-0.095-0.154-0.145-0.412-0.392-0.924-0.88-1.625-0.88s-1.213 0.488-1.625 0.88c-0.19 0.181-0.37 0.352-0.533 0.448-0.175 0.103-0.419 0.18-0.678 0.262-0.56 0.177-1.196 0.377-1.534 0.971-0.329 0.577-0.187 1.227-0.062 1.801 0.060 0.278 0.117 0.54 0.117 0.761s-0.057 0.484-0.117 0.761c-0.108 0.498-0.228 1.053-0.044 1.568l-2.222 2.283-14.14-14.525h28.28l-5.662 5.816zM9.361 16l-8.265 8.489v-16.979l8.265 8.489zM10.131 16.791l5.479 5.628c0.051 0.052 0.112 0.094 0.179 0.122s0.139 0.043 0.211 0.043c0.072 0 0.144-0.015 0.211-0.043s0.128-0.070 0.179-0.122l2.558-2.628c0.288 0.168 0.612 0.271 0.915 0.366 0.259 0.082 0.504 0.159 0.678 0.262 0.163 0.096 0.343 0.267 0.533 0.448 0.412 0.392 0.924 0.88 1.625 0.88s1.213-0.488 1.625-0.88c0.19-0.181 0.37-0.352 0.533-0.448 0.106-0.062 0.238-0.115 0.383-0.165l4.9 5.033h-28.281l8.271-8.496zM26.373 19.836c0.276-0.147 0.525-0.347 0.697-0.648 0.329-0.577 0.187-1.227 0.062-1.801-0.060-0.278-0.117-0.54-0.117-0.761s0.057-0.484 0.117-0.761c0.125-0.574 0.266-1.224-0.062-1.801-0.338-0.593-0.973-0.794-1.534-0.971l-0.051-0.016 5.419-5.567v16.98l-4.531-4.654z"></path>
<path fill="#f1cdb3" style="fill: var(--color1, #f1cdb3)" d="M22.699 13.794c-1.538 0-2.79 1.27-2.79 2.832s1.252 2.832 2.79 2.832 2.79-1.27 2.79-2.832c0-1.561-1.252-2.832-2.79-2.832zM22.699 18.345c-0.934 0-1.694-0.771-1.694-1.719s0.76-1.719 1.694-1.719c0.934 0 1.694 0.771 1.694 1.719s-0.76 1.719-1.694 1.719z"></path>
</symbol>
<symbol id="icon-phone" viewBox="0 0 32 32">
<path fill="#f1cdb3" style="fill: var(--color1, #f1cdb3)" d="M31.957 10.316l-1.949-4.792c-0.033-0.082-0.085-0.155-0.15-0.213s-0.143-0.1-0.227-0.122l-2.342-0.622c-6.858-1.822-15.72-1.822-22.578 0l-2.342 0.622c-0.084 0.022-0.162 0.064-0.227 0.122s-0.117 0.131-0.15 0.213l-1.949 4.792c-0.054 0.132-0.057 0.28-0.011 0.414l0.779 2.236c0.045 0.13 0.135 0.239 0.252 0.307s0.254 0.090 0.386 0.063l7.405-1.518c0.111-0.023 0.213-0.080 0.292-0.163s0.132-0.19 0.151-0.304l0.641-3.891c3.53-0.909 8.591-0.909 12.121 0l0.641 3.891c0.019 0.115 0.071 0.221 0.151 0.305s0.181 0.14 0.292 0.163l7.405 1.518c0.132 0.027 0.269 0.004 0.386-0.064s0.207-0.177 0.252-0.307l0.78-2.236c0.047-0.135 0.043-0.282-0.010-0.414zM1.706 12.113l-0.4-1.148 7.172-1.536-0.221 1.341-6.551 1.343zM9.298 6.445c-0.103 0.029-0.196 0.088-0.267 0.169s-0.119 0.182-0.137 0.289l-0.216 1.308-7.19 1.54 1.432-3.522 2.073-0.551c6.687-1.776 15.328-1.776 22.015 0l2.073 0.551 1.432 3.522-7.19-1.54-0.216-1.308c-0.018-0.108-0.065-0.208-0.137-0.289s-0.164-0.14-0.267-0.169c-3.821-1.081-9.584-1.081-13.405 0zM30.294 12.113l-6.551-1.343-0.221-1.341 7.172 1.536-0.4 1.148z"></path>
<path fill="#f1cdb3" style="fill: var(--color1, #f1cdb3)" d="M26.632 13.695c-0.023-0.108-0.076-0.206-0.152-0.283s-0.173-0.131-0.278-0.154l-3.82-0.837-0.481-3.21c-0.020-0.136-0.087-0.259-0.189-0.349s-0.231-0.139-0.365-0.139h-1.496v-0.752c0-0.317-0.251-0.575-0.561-0.575s-0.561 0.257-0.561 0.575v0.752h-5.459v-0.752c0-0.317-0.251-0.575-0.561-0.575s-0.561 0.257-0.561 0.575v0.752h-1.496c-0.134 0-0.264 0.049-0.365 0.139s-0.169 0.213-0.189 0.349l-0.481 3.21-3.82 0.837c-0.105 0.023-0.202 0.076-0.278 0.154s-0.129 0.176-0.153 0.283l-2.594 11.975c-0.009 0.041-0.013 0.083-0.013 0.124v2.431c0 0.152 0.059 0.299 0.164 0.406s0.248 0.168 0.397 0.168h25.356c0.149 0 0.291-0.061 0.397-0.168s0.164-0.254 0.164-0.406v-2.431c0-0.042-0.004-0.084-0.013-0.124l-2.594-11.975zM6.385 14.304l3.846-0.842c0.111-0.024 0.213-0.083 0.291-0.168s0.129-0.192 0.146-0.307l0.467-3.114h9.731l0.467 3.114c0.017 0.115 0.068 0.222 0.146 0.307s0.18 0.143 0.291 0.168l3.846 0.842 2.364 10.916h-23.958l2.364-10.916zM9.437 26.369l-0.722 1.281h-0.853l0.722-1.281h0.853zM10.733 26.369h12.205l-0.722 1.281h-12.205l0.722-1.281zM3.883 26.369h3.406l-0.722 1.281h-2.684v-1.281zM23.511 27.651l0.722-1.281h3.884v1.281h-4.606z"></path>
<path fill="#f1cdb3" style="fill: var(--color1, #f1cdb3)" d="M16 24.128c3.319 0 6.020-2.767 6.020-6.168s-2.7-6.169-6.020-6.169c-3.319 0-6.020 2.767-6.020 6.169s2.7 6.168 6.020 6.168zM16 12.941c2.701 0 4.898 2.252 4.898 5.019s-2.197 5.019-4.898 5.019c-2.701 0-4.898-2.252-4.898-5.019s2.197-5.019 4.898-5.019z"></path>
<path fill="#f1cdb3" style="fill: var(--color1, #f1cdb3)" d="M16 20.148c1.177 0 2.135-0.982 2.135-2.188s-0.958-2.188-2.135-2.188c-1.177 0-2.135 0.982-2.135 2.188s0.958 2.188 2.135 2.188zM16 16.921c0.559 0 1.014 0.466 1.014 1.039s-0.455 1.039-1.014 1.039c-0.559 0-1.014-0.466-1.014-1.039s0.455-1.039 1.014-1.039z"></path>
</symbol>
<symbol id="icon-pin" viewBox="0 0 32 32">
<path fill="#f1cdb3" style="fill: var(--color1, #f1cdb3)" d="M16 0c-6.065 0-11 4.785-11 10.667 0 1.766 0.455 3.516 1.321 5.069l9.078 15.921c0.121 0.212 0.351 0.344 0.601 0.344s0.481-0.131 0.602-0.344l9.081-15.926c0.862-1.547 1.317-3.298 1.317-5.064 0-5.881-4.935-10.667-11-10.667zM24.476 15.091l-8.476 14.865-8.473-14.859c-0.754-1.353-1.152-2.885-1.152-4.43 0-5.146 4.318-9.333 9.625-9.333s9.625 4.187 9.625 9.333c0 1.545-0.398 3.077-1.149 4.424z"></path>
<path fill="#f1cdb3" style="fill: var(--color1, #f1cdb3)" d="M16 5.333c-3.033 0-5.5 2.393-5.5 5.333s2.467 5.333 5.5 5.333c3.033 0 5.5-2.393 5.5-5.333s-2.467-5.333-5.5-5.333zM16 14.667c-2.275 0-4.125-1.794-4.125-4s1.85-4 4.125-4c2.275 0 4.125 1.794 4.125 4s-1.85 4-4.125 4z"></path>
</symbol>
</defs>
</svg>
